TITLE ""
FILE "Disc1Track67.mp3" MP3
  TRACK 01 AUDIO
    TITLE "Disc1Track67_01"
    INDEX 01 00:00:00
  TRACK 02 AUDIO
    TITLE "Disc1Track67_02"
    INDEX 01 00:01:02
  TRACK 03 AUDIO
    TITLE "Disc1Track67_03"
    INDEX 01 00:02:74
  TRACK 04 AUDIO
    TITLE "Disc1Track67_04"
    INDEX 01 00:04:12
  TRACK 05 AUDIO
    TITLE "Disc1Track67_05"
    INDEX 01 00:04:43
  TRACK 06 AUDIO
    TITLE "Disc1Track67_06"
    INDEX 01 00:05:57
  TRACK 07 AUDIO
    TITLE "Disc1Track67_07"
    INDEX 01 00:07:22
  TRACK 08 AUDIO
    TITLE "Disc1Track67_08"
    INDEX 01 00:08:35
  TRACK 09 AUDIO
    TITLE "Disc1Track67_09"
    INDEX 01 00:13:34
  TRACK 10 AUDIO
    TITLE "Disc1Track67_10"
    INDEX 01 00:13:66
  TRACK 11 AUDIO
    TITLE "Disc1Track67_11"
    INDEX 01 00:15:31
  TRACK 12 AUDIO
    TITLE "Disc1Track67_12"
    INDEX 01 00:16:23
  TRACK 13 AUDIO
    TITLE "Disc1Track67_13"
    INDEX 01 00:17:64
  TRACK 14 AUDIO
    TITLE "Disc1Track67_14"
    INDEX 01 00:22:06
  TRACK 15 AUDIO
    TITLE "Disc1Track67_15"
    INDEX 01 00:22:39
  TRACK 16 AUDIO
    TITLE "Disc1Track67_16"
    INDEX 01 00:23:58
  TRACK 17 AUDIO
    TITLE "Disc1Track67_17"
    INDEX 01 00:26:23
  TRACK 18 AUDIO
    TITLE "Disc1Track67_18"
    INDEX 01 00:27:40
  TRACK 19 AUDIO
    TITLE "Disc1Track67_19"
    INDEX 01 00:29:59
  TRACK 20 AUDIO
    TITLE "Disc1Track67_20"
    INDEX 01 00:30:17
  TRACK 21 AUDIO
    TITLE "Disc1Track67_21"
    INDEX 01 00:31:36
  TRACK 22 AUDIO
    TITLE "Disc1Track67_22"
    INDEX 01 00:32:51
  TRACK 23 AUDIO
    TITLE "Disc1Track67_23"
    INDEX 01 00:33:69
  TRACK 24 AUDIO
    TITLE "Disc1Track67_24"
    INDEX 01 00:34:33
  TRACK 25 AUDIO
    TITLE "Disc1Track67_25"
    INDEX 01 00:35:60
  TRACK 26 AUDIO
    TITLE "Disc1Track67_26"
    INDEX 01 00:36:65
  TRACK 27 AUDIO
    TITLE "Disc1Track67_27"
    INDEX 01 00:38:17
  TRACK 28 AUDIO
    TITLE "Disc1Track67_28"
    INDEX 01 00:43:18
  TRACK 29 AUDIO
    TITLE "Disc1Track67_29"
    INDEX 01 00:43:51
  TRACK 30 AUDIO
    TITLE "Disc1Track67_30"
    INDEX 01 00:45:11
  TRACK 31 AUDIO
    TITLE "Disc1Track67_31"
    INDEX 01 00:46:16
  TRACK 32 AUDIO
    TITLE "Disc1Track67_32"
    INDEX 01 00:47:49
  TRACK 33 AUDIO
    TITLE "Disc1Track67_33"
    INDEX 01 00:52:38
  TRACK 34 AUDIO
    TITLE "Disc1Track67_34"
    INDEX 01 00:52:70
  TRACK 35 AUDIO
    TITLE "Disc1Track67_35"
    INDEX 01 00:54:10
  TRACK 36 AUDIO
    TITLE "Disc1Track67_36"
    INDEX 01 00:55:21
  TRACK 37 AUDIO
    TITLE "Disc1Track67_37"
    INDEX 01 00:56:36
  TRACK 38 AUDIO
    TITLE "Disc1Track67_38"
    INDEX 01 00:57:02
  TRACK 39 AUDIO
    TITLE "Disc1Track67_39"
    INDEX 01 00:58:23
  TRACK 40 AUDIO
    TITLE "Disc1Track67_40"
    INDEX 01 01:00:20
  TRACK 41 AUDIO
    TITLE "Disc1Track67_41"
    INDEX 01 01:01:41
  TRACK 42 AUDIO
    TITLE "Disc1Track67_42"
    INDEX 01 01:05:12
  TRACK 43 AUDIO
    TITLE "Disc1Track67_43"
    INDEX 01 01:05:47
  TRACK 44 AUDIO
    TITLE "Disc1Track67_44"
    INDEX 01 01:06:68
  TRACK 45 AUDIO
    TITLE "Disc1Track67_45"
    INDEX 01 01:08:69
  TRACK 46 AUDIO
    TITLE "Disc1Track67_46"
    INDEX 01 01:10:13
  TRACK 47 AUDIO
    TITLE "Disc1Track67_47"
    INDEX 01 01:13:46
  TRACK 48 AUDIO
    TITLE "Disc1Track67_48"
    INDEX 01 01:14:03
  TRACK 49 AUDIO
    TITLE "Disc1Track67_49"
    INDEX 01 01:15:20
  TRACK 50 AUDIO
    TITLE "Disc1Track67_50"
    INDEX 01 01:17:23
  TRACK 51 AUDIO
    TITLE "Disc1Track67_51"
    INDEX 01 01:18:38
  TRACK 52 AUDIO
    TITLE "Disc1Track67_52"
    INDEX 01 01:20:35
  TRACK 53 AUDIO
    TITLE "Disc1Track67_53"
    INDEX 01 01:20:66
  TRACK 54 AUDIO
    TITLE "Disc1Track67_54"
    INDEX 01 01:22:14
  TRACK 55 AUDIO
    TITLE "Disc1Track67_55"
    INDEX 01 01:23:08
  TRACK 56 AUDIO
    TITLE "Disc1Track67_56"
    INDEX 01 01:24:29
  TRACK 57 AUDIO
    TITLE "Disc1Track67_57"
    INDEX 01 01:29:55
  TRACK 58 AUDIO
    TITLE "Disc1Track67_58"
    INDEX 01 01:30:12
  TRACK 59 AUDIO
    TITLE "Disc1Track67_59"
    INDEX 01 01:31:31
  TRACK 60 AUDIO
    TITLE "Disc1Track67_60"
    INDEX 01 01:33:30
  TRACK 61 AUDIO
    TITLE "Disc1Track67_61"
    INDEX 01 01:34:49
  TRACK 62 AUDIO
    TITLE "Disc1Track67_62"
    INDEX 01 01:38:52
